<svg width="220" height="32" viewBox="0 0 220 32" fill="none" xmlns="http://www.w3.org/2000/svg">
<path d="M210.582 21.4022C211.122 21.9055 211.626 22.3156 212.092 22.6324C212.557 22.9307 212.996 23.1543 213.406 23.3034C213.834 23.4526 214.235 23.5271 214.608 23.5271C215.092 23.5271 215.465 23.4246 215.726 23.2196C215.987 22.9959 216.118 22.6977 216.118 22.3249C216.118 21.9894 216.006 21.7098 215.782 21.4861C215.577 21.2438 215.269 21.0295 214.859 20.8431C214.449 20.6567 213.927 20.461 213.294 20.2559C212.697 20.0323 212.119 19.7713 211.56 19.4731C211.001 19.1562 210.535 18.7461 210.162 18.2429C209.808 17.721 209.631 17.0593 209.631 16.2578C209.631 15.4936 209.836 14.8505 210.246 14.3286C210.656 13.7881 211.206 13.3874 211.896 13.1264C212.604 12.8468 213.387 12.707 214.244 12.707C214.971 12.707 215.652 12.8002 216.285 12.9866C216.919 13.173 217.506 13.4246 218.047 13.7415C218.587 14.0397 219.063 14.3939 219.473 14.8039L217.879 17.0407C217.413 16.5374 216.854 16.1273 216.201 15.8105C215.568 15.4936 214.943 15.3352 214.328 15.3352C213.918 15.3352 213.592 15.419 213.35 15.5868C213.126 15.7359 213.014 15.9689 213.014 16.2858C213.014 16.5654 213.126 16.817 213.35 17.0407C213.592 17.2457 213.927 17.4321 214.356 17.5998C214.803 17.7676 215.307 17.9726 215.866 18.2149C216.556 18.4759 217.189 18.7741 217.767 19.1096C218.364 19.4265 218.839 19.8272 219.193 20.3118C219.547 20.7965 219.724 21.4302 219.724 22.213C219.724 23.4992 219.305 24.5057 218.466 25.2326C217.627 25.9409 216.472 26.295 214.999 26.295C214.086 26.295 213.247 26.1739 212.483 25.9316C211.737 25.6893 211.057 25.3724 210.442 24.981C209.845 24.5709 209.305 24.1329 208.82 23.6669L210.582 21.4022Z" fill="#FFFBFF"/>
<path d="M203.741 18.0192C203.741 17.1618 203.574 16.5094 203.238 16.0621C202.903 15.6148 202.362 15.3911 201.616 15.3911C201.113 15.3911 200.666 15.5029 200.274 15.7266C199.883 15.9316 199.585 16.2298 199.38 16.6213C199.175 17.0127 199.072 17.4787 199.072 18.0192V25.8477H195.438V12.9866H199.072V14.9437C199.464 14.2168 199.976 13.667 200.61 13.2942C201.262 12.9027 202.045 12.707 202.958 12.707C204.487 12.707 205.624 13.1451 206.369 14.0211C207.115 14.8785 207.488 16.0807 207.488 17.6278V25.8477H203.741V18.0192Z" fill="#FFFBFF"/>
<path d="M179.582 19.4172C179.582 18.0751 179.89 16.9009 180.505 15.8943C181.138 14.8878 181.986 14.105 183.049 13.5458C184.13 12.9866 185.351 12.707 186.712 12.707C188.072 12.707 189.284 12.9866 190.346 13.5458C191.427 14.105 192.275 14.8878 192.89 15.8943C193.524 16.9009 193.841 18.0751 193.841 19.4172C193.841 20.7405 193.524 21.9148 192.89 22.94C192.275 23.9465 191.427 24.7293 190.346 25.2885C189.284 25.8477 188.072 26.1273 186.712 26.1273C185.351 26.1273 184.13 25.8477 183.049 25.2885C181.986 24.7293 181.138 23.9465 180.505 22.94C179.89 21.9148 179.582 20.7405 179.582 19.4172ZM183.273 19.4172C183.273 20.1441 183.422 20.7871 183.72 21.3463C184.037 21.8869 184.456 22.3156 184.978 22.6324C185.5 22.9307 186.078 23.0798 186.712 23.0798C187.345 23.0798 187.923 22.9307 188.445 22.6324C188.967 22.3156 189.377 21.8869 189.675 21.3463C189.992 20.7871 190.15 20.1441 190.15 19.4172C190.15 18.6902 189.992 18.0472 189.675 17.488C189.377 16.9288 188.967 16.5001 188.445 16.2019C187.923 15.9037 187.345 15.7545 186.712 15.7545C186.078 15.7545 185.5 15.9037 184.978 16.2019C184.456 16.5001 184.037 16.9288 183.72 17.488C183.422 18.0472 183.273 18.6902 183.273 19.4172Z" fill="#FFFBFF"/>
<path d="M173.809 8.0117C173.809 7.41524 174.023 6.93062 174.452 6.55784C174.88 6.16641 175.393 5.9707 175.989 5.9707C176.586 5.9707 177.089 6.16641 177.499 6.55784C177.928 6.93062 178.142 7.41524 178.142 8.0117C178.142 8.58951 177.928 9.07414 177.499 9.46556C177.089 9.85698 176.586 10.0527 175.989 10.0527C175.393 10.0527 174.88 9.85698 174.452 9.46556C174.023 9.07414 173.809 8.58951 173.809 8.0117ZM174.2 12.9884H177.723V25.8495H174.2V12.9884Z" fill="#FFFBFF"/>
<path d="M165.227 12.989H173.167V16.0366H165.227V12.989ZM167.435 8.51562H170.93V25.8501H167.435V8.51562Z" fill="#FFFBFF"/>
<path d="M155.986 21.8508C155.986 22.2236 156.079 22.5498 156.266 22.8294C156.452 23.0903 156.704 23.2954 157.021 23.4445C157.356 23.5749 157.72 23.6402 158.111 23.6402C158.67 23.6402 159.174 23.5283 159.621 23.3047C160.068 23.0624 160.432 22.7269 160.711 22.2982C160.991 21.8508 161.131 21.3196 161.131 20.7045L161.578 22.382C161.578 23.2022 161.345 23.8918 160.879 24.451C160.432 25.0102 159.845 25.4295 159.118 25.7091C158.409 25.9887 157.664 26.1285 156.881 26.1285C156.079 26.1285 155.334 25.9701 154.644 25.6532C153.955 25.3363 153.395 24.8797 152.967 24.2832C152.557 23.6681 152.352 22.9226 152.352 22.0465C152.352 20.7977 152.79 19.8098 153.666 19.0829C154.542 18.356 155.781 17.9925 157.384 17.9925C158.204 17.9925 158.922 18.0764 159.537 18.2441C160.171 18.4119 160.702 18.6169 161.131 18.8592C161.559 19.1015 161.867 19.3345 162.053 19.5582V21.2357C161.55 20.8629 160.982 20.5833 160.348 20.3969C159.733 20.2106 159.08 20.1174 158.391 20.1174C157.832 20.1174 157.375 20.1919 157.021 20.341C156.667 20.4715 156.406 20.6672 156.238 20.9282C156.07 21.1705 155.986 21.478 155.986 21.8508ZM154.588 16.6225L153.246 14.1621C153.917 13.808 154.737 13.4725 155.707 13.1556C156.676 12.8201 157.757 12.6523 158.95 12.6523C160.05 12.6523 161.028 12.8108 161.886 13.1276C162.743 13.4445 163.414 13.9105 163.899 14.5256C164.383 15.122 164.626 15.8583 164.626 16.7343V25.8489H161.131V17.4892C161.131 17.1351 161.075 16.8369 160.963 16.5945C160.851 16.3336 160.674 16.1192 160.432 15.9515C160.208 15.7837 159.938 15.6626 159.621 15.588C159.304 15.5135 158.95 15.4762 158.558 15.4762C157.962 15.4762 157.393 15.5414 156.853 15.6719C156.312 15.8024 155.846 15.9608 155.455 16.1472C155.064 16.3336 154.775 16.492 154.588 16.6225Z" fill="#FFFBFF"/>
<path d="M143.593 19.4172C143.593 20.1627 143.761 20.8151 144.096 21.3743C144.432 21.9335 144.879 22.3715 145.438 22.6883C146.016 23.0052 146.65 23.1636 147.339 23.1636C147.899 23.1636 148.439 23.0798 148.961 22.912C149.483 22.7256 149.949 22.4833 150.359 22.1851C150.788 21.8682 151.114 21.5048 151.338 21.0947V24.8132C150.89 25.2233 150.303 25.5495 149.576 25.7918C148.868 26.0154 148.038 26.1273 147.088 26.1273C145.727 26.1273 144.497 25.8477 143.397 25.2885C142.316 24.7293 141.459 23.9465 140.825 22.94C140.21 21.9148 139.902 20.7405 139.902 19.4172C139.902 18.0751 140.21 16.9009 140.825 15.8943C141.459 14.8878 142.316 14.105 143.397 13.5458C144.497 12.9866 145.727 12.707 147.088 12.707C148.038 12.707 148.868 12.8282 149.576 13.0705C150.303 13.2942 150.89 13.6017 151.338 13.9931V17.7117C151.114 17.3016 150.778 16.9475 150.331 16.6492C149.902 16.3324 149.427 16.0901 148.905 15.9223C148.383 15.7545 147.861 15.6707 147.339 15.6707C146.65 15.6707 146.016 15.8384 145.438 16.1739C144.879 16.4908 144.432 16.9288 144.096 17.488C143.761 18.0472 143.593 18.6902 143.593 19.4172Z" fill="#FFFBFF"/>
<path d="M134.215 8.0117C134.215 7.41524 134.429 6.93062 134.858 6.55784C135.287 6.16641 135.799 5.9707 136.396 5.9707C136.992 5.9707 137.495 6.16641 137.905 6.55784C138.334 6.93062 138.548 7.41524 138.548 8.0117C138.548 8.58951 138.334 9.07414 137.905 9.46556C137.495 9.85698 136.992 10.0527 136.396 10.0527C135.799 10.0527 135.287 9.85698 134.858 9.46556C134.429 9.07414 134.215 8.58951 134.215 8.0117ZM134.606 12.9884H138.129V25.8495H134.606V12.9884Z" fill="#FFFBFF"/>
<path d="M128.293 4.04102H131.928V25.8489H128.293V4.04102Z" fill="#FFFBFF"/>
<path d="M116.142 31.9992H112.508V12.9871H116.142V31.9992ZM126.711 19.4177C126.711 20.8715 126.422 22.111 125.844 23.1362C125.266 24.1614 124.502 24.9349 123.552 25.4568C122.62 25.9787 121.613 26.2396 120.532 26.2396C119.432 26.2396 118.472 25.96 117.652 25.4009C116.851 24.8417 116.226 24.0495 115.779 23.0244C115.35 21.9992 115.136 20.797 115.136 19.4177C115.136 18.0197 115.35 16.8175 115.779 15.811C116.226 14.7858 116.851 13.9936 117.652 13.4345C118.472 12.8753 119.432 12.5957 120.532 12.5957C121.613 12.5957 122.62 12.8567 123.552 13.3786C124.502 13.9004 125.266 14.674 125.844 15.6991C126.422 16.7057 126.711 17.9452 126.711 19.4177ZM122.964 19.4177C122.964 18.6535 122.806 18.0011 122.489 17.4605C122.172 16.92 121.744 16.5099 121.203 16.2304C120.681 15.9508 120.103 15.811 119.47 15.811C118.929 15.811 118.398 15.9508 117.876 16.2304C117.373 16.4913 116.953 16.892 116.618 17.4326C116.301 17.9731 116.142 18.6348 116.142 19.4177C116.142 20.2005 116.301 20.8622 116.618 21.4027C116.953 21.9433 117.373 22.3533 117.876 22.6329C118.398 22.8939 118.929 23.0244 119.47 23.0244C120.103 23.0244 120.681 22.8846 121.203 22.605C121.744 22.3254 122.172 21.9153 122.489 21.3748C122.806 20.8342 122.964 20.1819 122.964 19.4177Z" fill="#FFFBFF"/>
<path d="M100.439 31.9992H96.8047V12.9871H100.439V31.9992ZM111.008 19.4177C111.008 20.8715 110.719 22.111 110.141 23.1362C109.563 24.1614 108.799 24.9349 107.848 25.4568C106.916 25.9787 105.91 26.2396 104.829 26.2396C103.729 26.2396 102.769 25.96 101.949 25.4009C101.148 24.8417 100.523 24.0495 100.076 23.0244C99.6472 21.9992 99.4328 20.797 99.4328 19.4177C99.4328 18.0197 99.6472 16.8175 100.076 15.811C100.523 14.7858 101.148 13.9936 101.949 13.4345C102.769 12.8753 103.729 12.5957 104.829 12.5957C105.91 12.5957 106.916 12.8567 107.848 13.3786C108.799 13.9004 109.563 14.674 110.141 15.6991C110.719 16.7057 111.008 17.9452 111.008 19.4177ZM107.261 19.4177C107.261 18.6535 107.103 18.0011 106.786 17.4605C106.469 16.92 106.04 16.5099 105.5 16.2304C104.978 15.9508 104.4 15.811 103.766 15.811C103.226 15.811 102.695 15.9508 102.173 16.2304C101.67 16.4913 101.25 16.892 100.915 17.4326C100.598 17.9731 100.439 18.6348 100.439 19.4177C100.439 20.2005 100.598 20.8622 100.915 21.4027C101.25 21.9433 101.67 22.3533 102.173 22.6329C102.695 22.8939 103.226 23.0244 103.766 23.0244C104.4 23.0244 104.978 22.8846 105.5 22.605C106.04 22.3254 106.469 21.9153 106.786 21.3748C107.103 20.8342 107.261 20.1819 107.261 19.4177Z" fill="#FFFBFF"/>
<path d="M86.0018 21.8508C86.0018 22.2236 86.095 22.5498 86.2814 22.8294C86.4678 23.0903 86.7195 23.2954 87.0363 23.4445C87.3718 23.5749 87.7353 23.6402 88.1267 23.6402C88.6859 23.6402 89.1891 23.5283 89.6365 23.3047C90.0838 23.0624 90.4473 22.7269 90.7269 22.2982C91.0065 21.8508 91.1463 21.3196 91.1463 20.7045L91.5936 22.382C91.5936 23.2022 91.3606 23.8918 90.8946 24.451C90.4473 25.0102 89.8602 25.4295 89.1332 25.7091C88.4249 25.9887 87.6794 26.1285 86.8965 26.1285C86.095 26.1285 85.3495 25.9701 84.6598 25.6532C83.9702 25.3363 83.411 24.8797 82.9823 24.2832C82.5722 23.6681 82.3672 22.9226 82.3672 22.0465C82.3672 20.7977 82.8052 19.8098 83.6813 19.0829C84.5573 18.356 85.7968 17.9925 87.3998 17.9925C88.2199 17.9925 88.9375 18.0764 89.5526 18.2441C90.1863 18.4119 90.7176 18.6169 91.1463 18.8592C91.575 19.1015 91.8825 19.3345 92.0689 19.5582V21.2357C91.5657 20.8629 90.9972 20.5833 90.3634 20.3969C89.7483 20.2106 89.096 20.1174 88.4063 20.1174C87.8471 20.1174 87.3905 20.1919 87.0363 20.341C86.6822 20.4715 86.4212 20.6672 86.2535 20.9282C86.0857 21.1705 86.0018 21.478 86.0018 21.8508ZM84.6039 16.6225L83.2619 14.1621C83.9329 13.808 84.753 13.4725 85.7222 13.1556C86.6915 12.8201 87.7726 12.6523 88.9655 12.6523C90.0652 12.6523 91.0438 12.8108 91.9012 13.1276C92.7586 13.4445 93.4296 13.9105 93.9142 14.5256C94.3988 15.122 94.6411 15.8583 94.6411 16.7343V25.8489H91.1463V17.4892C91.1463 17.1351 91.0904 16.8369 90.9785 16.5945C90.8667 16.3336 90.6896 16.1192 90.4473 15.9515C90.2236 15.7837 89.9534 15.6626 89.6365 15.588C89.3196 15.5135 88.9655 15.4762 88.5741 15.4762C87.9776 15.4762 87.4091 15.5414 86.8686 15.6719C86.328 15.8024 85.862 15.9608 85.4706 16.1472C85.0792 16.3336 84.7903 16.492 84.6039 16.6225Z" fill="#FFFBFF"/>
<path d="M73.2403 4.04102H76.875V25.8489H73.2403V4.04102ZM62.6719 19.4184C62.6719 17.9832 62.9608 16.7716 63.5386 15.7837C64.1164 14.7772 64.8806 14.013 65.8312 13.4911C66.7818 12.9692 67.7883 12.7083 68.8508 12.7083C69.9319 12.7083 70.8825 12.9785 71.7026 13.5191C72.5414 14.0596 73.1937 14.8331 73.6597 15.8397C74.1443 16.8275 74.3866 18.0204 74.3866 19.4184C74.3866 20.7977 74.1443 21.9906 73.6597 22.9971C73.1937 24.0036 72.5414 24.7772 71.7026 25.3177C70.8825 25.8582 69.9319 26.1285 68.8508 26.1285C67.7883 26.1285 66.7818 25.8676 65.8312 25.3457C64.8806 24.8238 64.1164 24.0596 63.5386 23.053C62.9608 22.0465 62.6719 20.835 62.6719 19.4184ZM66.4184 19.4184C66.4184 20.1826 66.5768 20.8443 66.8937 21.4035C67.2105 21.9626 67.6392 22.3913 68.1798 22.6896C68.7203 22.9878 69.2981 23.1369 69.9132 23.1369C70.4538 23.1369 70.9757 22.9971 71.4789 22.7175C72.0008 22.4193 72.4202 21.9906 72.7371 21.4314C73.0726 20.8722 73.2403 20.2012 73.2403 19.4184C73.2403 18.6355 73.0726 17.9645 72.7371 17.4053C72.4202 16.8462 72.0008 16.4268 71.4789 16.1472C70.9757 15.849 70.4538 15.6999 69.9132 15.6999C69.2981 15.6999 68.7203 15.849 68.1798 16.1472C67.6392 16.4454 67.2105 16.8741 66.8937 17.4333C66.5768 17.9925 66.4184 18.6542 66.4184 19.4184Z" fill="#FFFBFF"/>
<path d="M52.6503 21.8508C52.6503 22.2236 52.7435 22.5498 52.9299 22.8294C53.1163 23.0903 53.3679 23.2954 53.6848 23.4445C54.0203 23.5749 54.3837 23.6402 54.7752 23.6402C55.3343 23.6402 55.8376 23.5283 56.2849 23.3047C56.7323 23.0624 57.0957 22.7269 57.3753 22.2982C57.6549 21.8508 57.7947 21.3196 57.7947 20.7045L58.242 22.382C58.242 23.2022 58.0091 23.8918 57.5431 24.451C57.0957 25.0102 56.5086 25.4295 55.7817 25.7091C55.0734 25.9887 54.3278 26.1285 53.545 26.1285C52.7435 26.1285 51.9979 25.9701 51.3083 25.6532C50.6186 25.3363 50.0594 24.8797 49.6307 24.2832C49.2207 23.6681 49.0156 22.9226 49.0156 22.0465C49.0156 20.7977 49.4536 19.8098 50.3297 19.0829C51.2057 18.356 52.4452 17.9925 54.0482 17.9925C54.8683 17.9925 55.586 18.0764 56.2011 18.2441C56.8348 18.4119 57.366 18.6169 57.7947 18.8592C58.2234 19.1015 58.531 19.3345 58.7174 19.5582V21.2357C58.2141 20.8629 57.6456 20.5833 57.0119 20.3969C56.3968 20.2106 55.7444 20.1174 55.0547 20.1174C54.4956 20.1174 54.0389 20.1919 53.6848 20.341C53.3306 20.4715 53.0697 20.6672 52.9019 20.9282C52.7342 21.1705 52.6503 21.478 52.6503 21.8508ZM51.2523 16.6225L49.9103 14.1621C50.5813 13.808 51.4014 13.4725 52.3707 13.1556C53.3399 12.8201 54.421 12.6523 55.6139 12.6523C56.7136 12.6523 57.6922 12.8108 58.5496 13.1276C59.407 13.4445 60.078 13.9105 60.5626 14.5256C61.0473 15.122 61.2896 15.8583 61.2896 16.7343V25.8489H57.7947V17.4892C57.7947 17.1351 57.7388 16.8369 57.627 16.5945C57.5151 16.3336 57.338 16.1192 57.0957 15.9515C56.8721 15.7837 56.6018 15.6626 56.2849 15.588C55.9681 15.5135 55.6139 15.4762 55.2225 15.4762C54.626 15.4762 54.0575 15.5414 53.517 15.6719C52.9765 15.8024 52.5105 15.9608 52.1191 16.1472C51.7276 16.3336 51.4387 16.492 51.2523 16.6225Z" fill="#FFFBFF"/>
<path d="M43.8516 12.9872V25.8483H40.3008V12.9872H43.8516ZM47.626 16.7617C47.3837 16.538 47.1321 16.3703 46.8711 16.2584C46.6288 16.1279 46.3213 16.0627 45.9485 16.0627C45.5011 16.0627 45.119 16.1839 44.8022 16.4262C44.4853 16.6685 44.243 17.0133 44.0752 17.4607C43.9261 17.8894 43.8516 18.4113 43.8516 19.0263L42.845 18.0198C42.845 16.9947 43.0407 16.0907 43.4322 15.3078C43.8236 14.5063 44.3362 13.8726 44.9699 13.4066C45.6036 12.922 46.256 12.6797 46.927 12.6797C47.393 12.6797 47.831 12.7636 48.2411 12.9313C48.6698 13.0991 49.0146 13.3507 49.2756 13.6862L47.626 16.7617Z" fill="#FFFBFF"/>
<path d="M15.7847 23.5727L15.7751 22.9791C15.745 21.1334 14.6597 19.4683 12.9832 18.6957C11.7771 18.14 10.3947 18.1084 9.16449 18.6087L8.95064 18.6956C6.91328 19.5241 5.59315 21.518 5.62595 23.7171L5.63907 24.5971C5.66589 26.3947 6.72498 28.0164 8.36019 28.7637C9.48332 29.2769 10.7643 29.3231 11.9215 28.8922L12.2322 28.7764C14.3991 27.9694 15.8223 25.8846 15.7847 23.5727Z" fill="#FFFBFF"/>
<path d="M3.73828 23.3936C3.73828 21.9895 4.06005 20.7609 4.7036 19.7078C5.36665 18.6547 6.25396 17.8357 7.36554 17.2506C8.49663 16.6656 9.77397 16.373 11.1976 16.373C12.6212 16.373 13.8888 16.6656 15.0003 17.2506C16.1314 17.8357 17.0187 18.6547 17.6623 19.7078C18.3253 20.7609 18.6569 21.9895 18.6569 23.3936C18.6569 24.7782 18.3253 26.0067 17.6623 27.0793C17.0187 28.1324 16.1314 28.9515 15.0003 29.5365C13.8888 30.1215 12.6212 30.4141 11.1976 30.4141C9.77397 30.4141 8.49663 30.1215 7.36554 29.5365C6.25396 28.9515 5.36665 28.1324 4.7036 27.0793C4.06005 26.0067 3.73828 24.7782 3.73828 23.3936ZM7.59956 23.3936C7.59956 24.1541 7.75558 24.8269 8.0676 25.4119C8.39912 25.9775 8.83789 26.426 9.38393 26.7575C9.92997 27.0696 10.5345 27.2256 11.1976 27.2256C11.8606 27.2256 12.4652 27.0696 13.0112 26.7575C13.5572 26.426 13.9863 25.9775 14.2983 25.4119C14.6298 24.8269 14.7956 24.1541 14.7956 23.3936C14.7956 22.633 14.6298 21.9602 14.2983 21.3752C13.9863 20.7901 13.5572 20.3416 13.0112 20.0296C12.4652 19.7175 11.8606 19.5615 11.1976 19.5615C10.5345 19.5615 9.92997 19.7175 9.38393 20.0296C8.83789 20.3416 8.39912 20.7901 8.0676 21.3752C7.75558 21.9602 7.59956 22.633 7.59956 23.3936Z" fill="#FFFBFF"/>
<path d="M12.0464 7.19768L12.0368 6.60412C12.0068 4.75841 10.9214 3.09327 9.24492 2.32073C8.0388 1.76496 6.65639 1.73344 5.42621 2.23368L5.21236 2.32064C3.175 3.14911 1.85487 5.14297 1.88767 7.34209L1.90079 8.22205C1.92761 10.0197 2.9867 11.6414 4.62191 12.3887C5.74503 12.9019 7.02601 12.9481 8.1832 12.5172L8.49393 12.4014C10.6608 11.5944 12.084 9.50964 12.0464 7.19768Z" fill="#FFFBFF"/>
<path d="M28.5816 12.602L28.5719 12.0084C28.5419 10.1627 27.4566 8.49757 25.7801 7.72503C24.574 7.16925 23.1915 7.13774 21.9614 7.63798L21.7475 7.72494C19.7102 8.5534 18.39 10.5473 18.4228 12.7464L18.4359 13.6264C18.4628 15.424 19.5219 17.0457 21.1571 17.793C22.2802 18.3062 23.5612 18.3524 24.7184 17.9215L25.0291 17.8057C27.1959 16.9987 28.6192 14.9139 28.5816 12.602Z" fill="#FFFBFF"/>
<path d="M17.4727 12.2627C17.4727 10.8586 17.7944 9.63001 18.438 8.57693C19.3009 7.16485 19.9883 6.70479 21.0999 6.11975C22.231 5.53471 23.5083 5.24219 24.9319 5.24219C26.3555 5.24219 27.6231 5.53471 28.7347 6.11975C29.8658 6.70479 30.7531 7.52385 31.3967 8.57693C32.0597 9.63001 32.3912 10.8586 32.3912 12.2627C32.3912 13.6473 32.0597 14.8759 31.3967 15.9485C30.7531 17.0015 29.8658 17.8206 28.7347 18.4056C27.6231 18.9907 26.3555 19.2832 24.9319 19.2832C23.5083 19.2832 22.231 18.9907 21.0999 18.4056C19.9883 17.8206 19.101 17.0015 18.438 15.9485C17.7944 14.8759 17.4727 13.6473 17.4727 12.2627ZM21.3339 12.2627C21.3339 13.0232 21.49 13.696 21.802 14.2811C22.1335 14.8466 22.5723 15.2952 23.1183 15.6267C23.6643 15.9387 24.2689 16.0947 24.9319 16.0947C25.595 16.0947 26.1995 15.9387 26.7456 15.6267C27.2916 15.2952 27.7206 14.8466 28.0327 14.2811C28.3642 13.696 28.5299 13.0232 28.5299 12.2627C28.5299 11.5021 28.3642 10.8293 28.0327 10.2443C27.7206 9.65926 27.2916 9.21072 26.7456 8.8987C26.1995 8.58668 25.595 8.43067 24.9319 8.43067C24.2689 8.43067 23.6643 8.58668 23.1183 8.8987C22.5723 9.21072 22.1335 9.65926 21.802 10.2443C21.49 10.8293 21.3339 11.5021 21.3339 12.2627Z" fill="#FFFBFF"/>
<path d="M0 7.02051C0 5.6164 0.321773 4.38782 0.965319 3.33474C1.62837 2.28167 2.51568 1.4626 3.62726 0.877562C4.75834 0.29252 6.03569 0 7.45929 0C8.88289 0 10.1505 0.29252 11.2621 0.877562C12.3931 1.4626 12.7978 1.82826 13.924 3.33474C14.587 4.38782 14.9186 5.6164 14.9186 7.02051C14.9186 8.40511 14.587 9.63369 13.924 10.7063C13.2804 11.7593 12.3931 12.5784 11.2621 13.1634C10.1505 13.7485 8.88289 14.041 7.45929 14.041C6.03569 14.041 4.75834 13.7485 3.62726 13.1634C2.51568 12.5784 1.62837 11.7593 0.965319 10.7063C0.321773 9.63369 0 8.40511 0 7.02051ZM3.86128 7.02051C3.86128 7.78106 4.0173 8.45386 4.32932 9.0389C4.66084 9.60444 5.09961 10.053 5.64565 10.3845C6.19169 10.6965 6.79624 10.8525 7.45929 10.8525C8.12234 10.8525 8.72687 10.6965 9.27291 10.3845C9.81895 10.053 10.248 9.60444 10.56 9.0389C10.8915 8.45386 11.0573 7.78106 11.0573 7.02051C11.0573 6.25995 10.8915 5.58715 10.56 5.00211C10.248 4.41707 9.81895 3.96854 9.27291 3.65651C8.72687 3.34449 8.12234 3.18848 7.45929 3.18848C6.79624 3.18848 6.19169 3.34449 5.64565 3.65651C5.09961 3.96854 4.66084 4.41707 4.32932 5.00211C4.0173 5.58715 3.86128 6.25995 3.86128 7.02051Z" fill="#FFFBFF"/>
</svg>
