<svg width="308" height="120" viewBox="0 0 308 120" fill="none" xmlns="http://www.w3.org/2000/svg">
<g filter="url(#filter0_ddddi_384_397)">
<path d="M37.2234 28.2465L37.7311 29.4258C39.3098 33.0926 38.6455 37.3405 36.0222 40.353C34.135 42.5202 31.4346 43.81 28.5627 43.916L28.0635 43.9344C23.3073 44.1098 18.9323 41.3498 17.0455 36.9835L16.2905 35.2363C14.7481 31.6671 15.3992 27.5282 17.9633 24.6022C19.7245 22.5926 22.2117 21.3638 24.878 21.1861L25.594 21.1384C30.5868 20.8057 35.2459 23.6534 37.2234 28.2465Z" fill="#6A0ADF"/>
<path d="M13.6047 39.2946C14.8507 42.0638 16.5761 44.2011 18.7808 45.7065C21.0239 47.1945 23.502 48.0219 26.2151 48.1886C28.9666 48.3379 31.7472 47.7805 34.5569 46.5162C37.3666 45.2519 39.6087 43.5493 41.2834 41.4083C42.9966 39.25 44.0209 36.8466 44.3565 34.1982C44.7305 31.5324 44.2946 28.8149 43.0485 26.0457C41.8198 23.315 40.0751 21.1863 37.8147 19.6598C35.61 18.1544 33.1319 17.327 30.3804 17.1777C27.6673 17.011 24.906 17.5598 22.0963 18.8241C19.2866 20.0883 17.0252 21.7996 15.312 23.958C13.6374 26.099 12.613 28.5023 12.2389 31.1681C11.9207 33.855 12.3759 36.5638 13.6047 39.2946ZM21.2254 35.8655C20.5505 34.3655 20.2613 32.9 20.3579 31.4691C20.5104 30.0593 20.9783 28.785 21.7618 27.6462C22.5626 26.5459 23.6173 25.7013 24.9259 25.1125C26.2345 24.5237 27.5661 24.2945 28.9207 24.4249C30.2926 24.5939 31.5374 25.0974 32.6551 25.9357C33.8286 26.7951 34.7528 27.9749 35.4277 29.4748C36.1027 30.9748 36.3726 32.449 36.2375 33.8972C36.1409 35.3282 35.6922 36.5938 34.8914 37.6941C34.0906 38.7944 33.0359 39.639 31.7273 40.2278C30.4187 40.8166 29.0871 41.0458 27.7325 40.9154C26.3779 40.7849 25.1139 40.29 23.9404 39.4305C22.8054 38.5538 21.9004 37.3654 21.2254 35.8655Z" fill="white"/>
<path d="M13.6047 39.2946C14.8507 42.0638 16.5761 44.2011 18.7808 45.7065C21.0239 47.1945 23.502 48.0219 26.2151 48.1886C28.9666 48.3379 31.7472 47.7805 34.5569 46.5162C37.3666 45.2519 39.6087 43.5493 41.2834 41.4083C42.9966 39.25 44.0209 36.8466 44.3565 34.1982C44.7305 31.5324 44.2946 28.8149 43.0485 26.0457C41.8198 23.315 40.0751 21.1863 37.8147 19.6598C35.61 18.1544 33.1319 17.327 30.3804 17.1777C27.6673 17.011 24.906 17.5598 22.0963 18.8241C19.2866 20.0883 17.0252 21.7996 15.312 23.958C13.6374 26.099 12.613 28.5023 12.2389 31.1681C11.9207 33.855 12.3759 36.5638 13.6047 39.2946ZM21.2254 35.8655C20.5505 34.3655 20.2613 32.9 20.3579 31.4691C20.5104 30.0593 20.9783 28.785 21.7618 27.6462C22.5626 26.5459 23.6173 25.7013 24.9259 25.1125C26.2345 24.5237 27.5661 24.2945 28.9207 24.4249C30.2926 24.5939 31.5374 25.0974 32.6551 25.9357C33.8286 26.7951 34.7528 27.9749 35.4277 29.4748C36.1027 30.9748 36.3726 32.449 36.2375 33.8972C36.1409 35.3282 35.6922 36.5938 34.8914 37.6941C34.0906 38.7944 33.0359 39.639 31.7273 40.2278C30.4187 40.8166 29.0871 41.0458 27.7325 40.9154C26.3779 40.7849 25.1139 40.29 23.9404 39.4305C22.8054 38.5538 21.9004 37.3654 21.2254 35.8655Z" fill="#6A0ADF"/>
<path d="M44.3772 63.8598L44.8849 65.039C46.4636 68.7059 45.7993 72.9537 43.176 75.9662C41.2888 78.1335 38.5884 79.4233 35.7165 79.5292L35.2173 79.5476C30.4611 79.723 26.0862 76.9631 24.1993 72.5968L23.4443 70.8496C21.9019 67.2804 22.553 63.1415 25.1171 60.2155C26.8783 58.2059 29.3655 56.9771 32.0318 56.7994L32.7478 56.7517C37.7406 56.419 42.3997 59.2667 44.3772 63.8598Z" fill="#6A0ADF"/>
<path d="M72.2178 38.5185L72.7255 39.6977C74.3042 43.3646 73.6399 47.6124 71.0166 50.6249C69.1294 52.7922 66.429 54.082 63.5571 54.1879L63.0579 54.2063C58.3016 54.3817 53.9267 51.6218 52.0399 47.2555L51.2849 45.5083C49.7425 41.9391 50.3936 37.8002 52.9577 34.8742C54.7189 32.8646 57.2061 31.6358 59.8724 31.4581L60.5884 31.4104C65.5811 31.0777 70.2402 33.9254 72.2178 38.5185Z" fill="#6A0ADF"/>
<path d="M50.5962 49.048C51.8423 51.8172 53.5677 53.9545 55.7723 55.4599C58.7286 57.4785 60.4936 57.7753 63.2067 57.942C65.9582 58.0914 68.7388 57.5339 71.5485 56.2696C74.3581 55.0054 76.6003 53.3027 78.275 51.1617C79.9881 49.0034 81.0125 46.6 81.3481 43.9516C81.7221 41.2858 81.2862 38.5684 80.0401 35.7991C78.8113 33.0684 77.0667 30.9398 74.8062 29.4132C72.6016 27.9078 70.1235 27.0805 67.372 26.9311C64.6589 26.7644 61.8975 27.3132 59.0879 28.5775C56.2782 29.8418 54.0168 31.5531 52.3036 33.7114C50.629 35.8524 49.6046 38.2558 49.2305 40.9215C48.9122 43.6084 49.3675 46.3172 50.5962 49.048ZM58.217 45.6189C57.542 44.1189 57.2529 42.6534 57.3495 41.2225C57.5019 39.8127 57.9699 38.5384 58.7533 37.3996C59.5541 36.2993 60.6088 35.4548 61.9175 34.8659C63.2261 34.2771 64.5577 34.0479 65.9122 34.1784C67.2841 34.3473 68.5289 34.8509 69.6467 35.6891C70.8202 36.5486 71.7444 37.7283 72.4193 39.2283C73.0943 40.7283 73.3642 42.2024 73.2291 43.6506C73.1324 45.0816 72.6837 46.3472 71.883 47.4475C71.0822 48.5478 70.0275 49.3924 68.7189 49.9812C67.4103 50.57 66.0786 50.7992 64.7241 50.6688C63.3695 50.5383 62.1055 50.0434 60.9319 49.184C59.7969 48.3072 58.8919 47.1189 58.217 45.6189Z" fill="white"/>
<path d="M50.5962 49.048C51.8423 51.8172 53.5677 53.9545 55.7723 55.4599C58.7286 57.4785 60.4936 57.7753 63.2067 57.942C65.9582 58.0914 68.7388 57.5339 71.5485 56.2696C74.3581 55.0054 76.6003 53.3027 78.275 51.1617C79.9881 49.0034 81.0125 46.6 81.3481 43.9516C81.7221 41.2858 81.2862 38.5684 80.0401 35.7991C78.8113 33.0684 77.0667 30.9398 74.8062 29.4132C72.6016 27.9078 70.1235 27.0805 67.372 26.9311C64.6589 26.7644 61.8975 27.3132 59.0879 28.5775C56.2782 29.8418 54.0168 31.5531 52.3036 33.7114C50.629 35.8524 49.6046 38.2558 49.2305 40.9215C48.9122 43.6084 49.3675 46.3172 50.5962 49.048ZM58.217 45.6189C57.542 44.1189 57.2529 42.6534 57.3495 41.2225C57.5019 39.8127 57.9699 38.5384 58.7533 37.3996C59.5541 36.2993 60.6088 35.4548 61.9175 34.8659C63.2261 34.2771 64.5577 34.0479 65.9122 34.1784C67.2841 34.3473 68.5289 34.8509 69.6467 35.6891C70.8202 36.5486 71.7444 37.7283 72.4193 39.2283C73.0943 40.7283 73.3642 42.2024 73.2291 43.6506C73.1324 45.0816 72.6837 46.3472 71.883 47.4475C71.0822 48.5478 70.0275 49.3924 68.7189 49.9812C67.4103 50.57 66.0786 50.7992 64.7241 50.6688C63.3695 50.5383 62.1055 50.0434 60.9319 49.184C59.7969 48.3072 58.8919 47.1189 58.217 45.6189Z" fill="#6A0ADF"/>
<path d="M20.7612 74.9064C22.0072 77.6756 23.7326 79.8129 25.9372 81.3183C28.1804 82.8064 30.6585 83.6337 33.3716 83.8004C36.1231 83.9498 38.9037 83.3923 41.7134 82.128C44.5231 80.8638 46.7652 79.1611 48.4399 77.0201C50.1531 74.8618 50.6272 73.7813 51.513 69.81C51.887 67.1442 51.4511 64.4268 50.205 61.6575C48.9763 58.9268 47.2316 56.7982 44.9712 55.2716C42.7665 53.7662 40.2884 52.9389 37.5369 52.7895C34.8238 52.6228 32.0625 53.1716 29.2528 54.4359C26.4431 55.7002 24.1817 57.4115 22.4685 59.5698C20.7939 61.7108 19.7695 64.1142 19.3954 66.7799C19.0772 69.4668 19.5324 72.1756 20.7612 74.9064ZM28.3819 71.4773C27.707 69.9773 27.4178 68.5118 27.5144 67.0809C27.6669 65.6711 28.1348 64.3968 28.9183 63.258C29.719 62.1577 30.7738 61.3132 32.0824 60.7243C33.391 60.1355 34.7226 59.9063 36.0772 60.0368C37.4491 60.2057 38.6939 60.7093 39.8116 61.5475C40.9851 62.407 41.9093 63.5867 42.5842 65.0867C43.2592 66.5867 43.5291 68.0608 43.394 69.509C43.2974 70.94 42.8487 72.2056 42.0479 73.3059C41.2471 74.4062 40.1924 75.2508 38.8838 75.8396C37.5752 76.4284 36.2436 76.6576 34.889 76.5272C33.5344 76.3967 32.2704 75.9018 31.0969 75.0424C29.9619 74.1656 29.0569 72.9773 28.3819 71.4773Z" fill="white"/>
<path d="M20.7612 74.9064C22.0072 77.6756 23.7326 79.8129 25.9372 81.3183C28.1804 82.8064 30.6585 83.6337 33.3716 83.8004C36.1231 83.9498 38.9037 83.3923 41.7134 82.128C44.5231 80.8638 46.7652 79.1611 48.4399 77.0201C50.1531 74.8618 50.6272 73.7813 51.513 69.81C51.887 67.1442 51.4511 64.4268 50.205 61.6575C48.9763 58.9268 47.2316 56.7982 44.9712 55.2716C42.7665 53.7662 40.2884 52.9389 37.5369 52.7895C34.8238 52.6228 32.0625 53.1716 29.2528 54.4359C26.4431 55.7002 24.1817 57.4115 22.4685 59.5698C20.7939 61.7108 19.7695 64.1142 19.3954 66.7799C19.0772 69.4668 19.5324 72.1756 20.7612 74.9064ZM28.3819 71.4773C27.707 69.9773 27.4178 68.5118 27.5144 67.0809C27.6669 65.6711 28.1348 64.3968 28.9183 63.258C29.719 62.1577 30.7738 61.3132 32.0824 60.7243C33.391 60.1355 34.7226 59.9063 36.0772 60.0368C37.4491 60.2057 38.6939 60.7093 39.8116 61.5475C40.9851 62.407 41.9093 63.5867 42.5842 65.0867C43.2592 66.5867 43.5291 68.0608 43.394 69.509C43.2974 70.94 42.8487 72.2056 42.0479 73.3059C41.2471 74.4062 40.1924 75.2508 38.8838 75.8396C37.5752 76.4284 36.2436 76.6576 34.889 76.5272C33.5344 76.3967 32.2704 75.9018 31.0969 75.0424C29.9619 74.1656 29.0569 72.9773 28.3819 71.4773Z" fill="#6A0ADF"/>
</g>
<path d="M296.86 48.4696C297.514 49.0782 298.122 49.5741 298.686 49.9574C299.249 50.318 299.779 50.5885 300.275 50.7689C300.794 50.9492 301.278 51.0394 301.729 51.0394C302.315 51.0394 302.766 50.9154 303.082 50.6674C303.397 50.3969 303.555 50.0363 303.555 49.5854C303.555 49.1796 303.42 48.8415 303.149 48.571C302.901 48.278 302.529 48.0187 302.033 47.7933C301.537 47.5679 300.906 47.3312 300.14 47.0832C299.419 46.8127 298.72 46.4971 298.043 46.1364C297.367 45.7532 296.804 45.2573 296.353 44.6487C295.924 44.0175 295.71 43.2172 295.71 42.2479C295.71 41.3237 295.958 40.546 296.454 39.9148C296.95 39.2611 297.615 38.7764 298.449 38.4608C299.306 38.1227 300.253 37.9536 301.29 37.9536C302.169 37.9536 302.991 38.0663 303.758 38.2917C304.524 38.5172 305.234 38.8215 305.888 39.2047C306.542 39.5654 307.117 39.9937 307.613 40.4896L305.685 43.1947C305.122 42.586 304.445 42.0901 303.656 41.7069C302.89 41.3237 302.135 41.1321 301.391 41.1321C300.895 41.1321 300.501 41.2335 300.208 41.4364C299.937 41.6167 299.802 41.8985 299.802 42.2817C299.802 42.6199 299.937 42.9242 300.208 43.1947C300.501 43.4426 300.906 43.6681 301.425 43.8709C301.966 44.0738 302.574 44.3218 303.251 44.6148C304.085 44.9304 304.851 45.2911 305.55 45.6969C306.271 46.0801 306.846 46.5648 307.274 47.1508C307.703 47.7369 307.917 48.5034 307.917 49.4502C307.917 51.0056 307.41 52.2229 306.395 53.102C305.381 53.9586 303.983 54.3869 302.202 54.3869C301.098 54.3869 300.084 54.2404 299.159 53.9473C298.258 53.6543 297.435 53.2711 296.691 52.7977C295.97 52.3017 295.316 51.772 294.73 51.2085L296.86 48.4696Z" fill="#FFFBFF"/>
<path d="M288.588 44.3782C288.588 43.3412 288.385 42.5522 287.979 42.0112C287.574 41.4702 286.92 41.1997 286.018 41.1997C285.41 41.1997 284.869 41.335 284.395 41.6055C283.922 41.8534 283.561 42.2141 283.313 42.6875C283.065 43.1609 282.941 43.7244 282.941 44.3782V53.8459H278.545V38.2917H282.941V40.6587C283.415 39.7795 284.034 39.1145 284.801 38.6637C285.59 38.1903 286.537 37.9536 287.641 37.9536C289.49 37.9536 290.865 38.4834 291.766 39.5428C292.668 40.5798 293.119 42.0338 293.119 43.9048V53.8459H288.588V44.3782Z" fill="#FFFBFF"/>
<path d="M259.37 46.0688C259.37 44.4458 259.742 43.0256 260.486 41.8083C261.252 40.5911 262.278 39.6443 263.563 38.968C264.87 38.2917 266.347 37.9536 267.993 37.9536C269.638 37.9536 271.103 38.2917 272.388 38.968C273.696 39.6443 274.721 40.5911 275.465 41.8083C276.232 43.0256 276.615 44.4458 276.615 46.0688C276.615 47.6693 276.232 49.0895 275.465 50.3293C274.721 51.5466 273.696 52.4934 272.388 53.1696C271.103 53.8459 269.638 54.184 267.993 54.184C266.347 54.184 264.87 53.8459 263.563 53.1696C262.278 52.4934 261.252 51.5466 260.486 50.3293C259.742 49.0895 259.37 47.6693 259.37 46.0688ZM263.833 46.0688C263.833 46.948 264.014 47.7257 264.375 48.4019C264.758 49.0557 265.265 49.5741 265.896 49.9574C266.527 50.318 267.226 50.4984 267.993 50.4984C268.759 50.4984 269.458 50.318 270.089 49.9574C270.72 49.5741 271.216 49.0557 271.577 48.4019C271.96 47.7257 272.152 46.948 272.152 46.0688C272.152 45.1897 271.96 44.412 271.577 43.7357C271.216 43.0594 270.72 42.541 270.089 42.1803C269.458 41.8196 268.759 41.6393 267.993 41.6393C267.226 41.6393 266.527 41.8196 265.896 42.1803C265.265 42.541 264.758 43.0594 264.375 43.7357C264.014 44.412 263.833 45.1897 263.833 46.0688Z" fill="#FFFBFF"/>
<path d="M252.387 32.275C252.387 31.5537 252.646 30.9676 253.165 30.5167C253.683 30.0433 254.303 29.8066 255.025 29.8066C255.746 29.8066 256.355 30.0433 256.851 30.5167C257.369 30.9676 257.628 31.5537 257.628 32.275C257.628 32.9738 257.369 33.5599 256.851 34.0333C256.355 34.5067 255.746 34.7434 255.025 34.7434C254.303 34.7434 253.683 34.5067 253.165 34.0333C252.646 33.5599 252.387 32.9738 252.387 32.275ZM252.861 38.2938H257.121V53.8479H252.861V38.2938Z" fill="#FFFBFF"/>
<path d="M242.008 38.2944H251.611V41.9801H242.008V38.2944ZM244.68 32.8843H248.906V53.8486H244.68V32.8843Z" fill="#FFFBFF"/>
<path d="M230.833 49.0113C230.833 49.4622 230.946 49.8566 231.171 50.1948C231.397 50.5104 231.701 50.7583 232.084 50.9387C232.49 51.0965 232.929 51.1754 233.403 51.1754C234.079 51.1754 234.688 51.0401 235.229 50.7696C235.77 50.4766 236.209 50.0708 236.547 49.5523C236.886 49.0113 237.055 48.3689 237.055 47.625L237.596 49.6538C237.596 50.6456 237.314 51.4797 236.75 52.156C236.209 52.8322 235.499 53.3394 234.62 53.6776C233.763 54.0157 232.862 54.1848 231.915 54.1848C230.946 54.1848 230.044 53.9932 229.21 53.6099C228.376 53.2267 227.7 52.6744 227.181 51.9531C226.685 51.2092 226.437 50.3075 226.437 49.248C226.437 47.7377 226.967 46.5429 228.026 45.6638C229.086 44.7846 230.585 44.3451 232.524 44.3451C233.516 44.3451 234.383 44.4465 235.127 44.6494C235.894 44.8523 236.536 45.1002 237.055 45.3933C237.573 45.6863 237.945 45.9681 238.17 46.2386V48.2674C237.562 47.8166 236.874 47.4784 236.108 47.253C235.364 47.0276 234.575 46.9149 233.741 46.9149C233.065 46.9149 232.512 47.0051 232.084 47.1854C231.656 47.3432 231.34 47.5799 231.137 47.8955C230.934 48.1885 230.833 48.5605 230.833 49.0113ZM229.142 42.6882L227.519 39.7126C228.331 39.2843 229.323 38.8786 230.495 38.4954C231.667 38.0896 232.975 37.8867 234.417 37.8867C235.747 37.8867 236.931 38.0783 237.968 38.4615C239.005 38.8448 239.816 39.4083 240.402 40.1522C240.988 40.8736 241.281 41.764 241.281 42.8235V53.8466H237.055V43.7364C237.055 43.3081 236.987 42.9474 236.852 42.6544C236.717 42.3388 236.502 42.0796 236.209 41.8767C235.939 41.6738 235.612 41.5273 235.229 41.4371C234.846 41.347 234.417 41.3019 233.944 41.3019C233.222 41.3019 232.535 41.3808 231.881 41.5386C231.227 41.6964 230.664 41.888 230.191 42.1134C229.717 42.3388 229.368 42.5304 229.142 42.6882Z" fill="#FFFBFF"/>
<path d="M215.845 46.0688C215.845 46.9705 216.048 47.7595 216.453 48.4358C216.859 49.112 217.4 49.6418 218.076 50.025C218.775 50.4082 219.542 50.5998 220.376 50.5998C221.052 50.5998 221.706 50.4984 222.337 50.2955C222.968 50.0701 223.532 49.777 224.028 49.4163C224.546 49.0331 224.941 48.5936 225.211 48.0976V52.5948C224.67 53.0907 223.96 53.4852 223.081 53.7783C222.224 54.0488 221.221 54.184 220.071 54.184C218.426 54.184 216.938 53.8459 215.608 53.1696C214.301 52.4934 213.264 51.5466 212.497 50.3293C211.753 49.0895 211.381 47.6693 211.381 46.0688C211.381 44.4458 211.753 43.0256 212.497 41.8083C213.264 40.5911 214.301 39.6443 215.608 38.968C216.938 38.2917 218.426 37.9536 220.071 37.9536C221.221 37.9536 222.224 38.1001 223.081 38.3932C223.96 38.6637 224.67 39.0356 225.211 39.509V44.0062C224.941 43.5103 224.535 43.082 223.994 42.7213C223.475 42.3381 222.9 42.045 222.269 41.8421C221.638 41.6393 221.007 41.5378 220.376 41.5378C219.542 41.5378 218.775 41.7407 218.076 42.1465C217.4 42.5297 216.859 43.0594 216.453 43.7357C216.048 44.412 215.845 45.1897 215.845 46.0688Z" fill="#FFFBFF"/>
<path d="M204.5 32.275C204.5 31.5537 204.759 30.9676 205.278 30.5167C205.796 30.0433 206.416 29.8066 207.138 29.8066C207.859 29.8066 208.468 30.0433 208.964 30.5167C209.482 30.9676 209.741 31.5537 209.741 32.275C209.741 32.9738 209.482 33.5599 208.964 34.0333C208.468 34.5067 207.859 34.7434 207.138 34.7434C206.416 34.7434 205.796 34.5067 205.278 34.0333C204.759 33.5599 204.5 32.9738 204.5 32.275ZM204.974 38.2938H209.234V53.8479H204.974V38.2938Z" fill="#FFFBFF"/>
<path d="M197.339 27.4673H201.734V53.8417H197.339V27.4673Z" fill="#FFFBFF"/>
<path d="M182.646 60.2853H178.25V37.2922H182.646V60.2853ZM195.428 45.0693C195.428 46.8276 195.078 48.3267 194.379 49.5665C193.681 50.8063 192.756 51.7418 191.607 52.373C190.48 53.0042 189.262 53.3198 187.955 53.3198C186.625 53.3198 185.464 52.9816 184.472 52.3054C183.503 51.6291 182.748 50.6711 182.207 49.4312C181.688 48.1914 181.429 46.7374 181.429 45.0693C181.429 43.3786 181.688 41.9247 182.207 40.7074C182.748 39.4676 183.503 38.5095 184.472 37.8332C185.464 37.157 186.625 36.8188 187.955 36.8188C189.262 36.8188 190.48 37.1344 191.607 37.7656C192.756 38.3968 193.681 39.3323 194.379 40.5721C195.078 41.7894 195.428 43.2885 195.428 45.0693ZM190.897 45.0693C190.897 44.1451 190.705 43.3561 190.322 42.7024C189.939 42.0486 189.42 41.5527 188.766 41.2146C188.135 40.8765 187.436 40.7074 186.67 40.7074C186.016 40.7074 185.374 40.8765 184.743 41.2146C184.134 41.5302 183.627 42.0148 183.221 42.6686C182.838 43.3223 182.646 44.1225 182.646 45.0693C182.646 46.0161 182.838 46.8163 183.221 47.4701C183.627 48.1238 184.134 48.6197 184.743 48.9578C185.374 49.2734 186.016 49.4312 186.67 49.4312C187.436 49.4312 188.135 49.2622 188.766 48.924C189.42 48.5859 189.939 48.09 190.322 47.4362C190.705 46.7825 190.897 45.9935 190.897 45.0693Z" fill="#FFFBFF"/>
<path d="M163.657 61.2853H159.261V38.2922H163.657V61.2853ZM176.439 46.0693C176.439 47.8276 176.089 49.3267 175.39 50.5665C174.692 51.8063 173.767 52.7418 172.618 53.373C171.491 54.0042 170.273 54.3198 168.966 54.3198C167.636 54.3198 166.475 53.9816 165.483 53.3054C164.514 52.6291 163.759 51.6711 163.218 50.4312C162.699 49.1914 162.44 47.7374 162.44 46.0693C162.44 44.3786 162.699 42.9247 163.218 41.7074C163.759 40.4676 164.514 39.5095 165.483 38.8332C166.475 38.157 167.636 37.8188 168.966 37.8188C170.273 37.8188 171.491 38.1344 172.618 38.7656C173.767 39.3968 174.692 40.3323 175.39 41.5721C176.089 42.7894 176.439 44.2885 176.439 46.0693ZM171.908 46.0693C171.908 45.1451 171.716 44.3561 171.333 43.7024C170.95 43.0486 170.431 42.5527 169.777 42.2146C169.146 41.8765 168.447 41.7074 167.681 41.7074C167.027 41.7074 166.385 41.8765 165.754 42.2146C165.145 42.5302 164.638 43.0148 164.232 43.6686C163.849 44.3223 163.657 45.1225 163.657 46.0693C163.657 47.0161 163.849 47.8163 164.232 48.4701C164.638 49.1238 165.145 49.6197 165.754 49.9578C166.385 50.2734 167.027 50.4312 167.681 50.4312C168.447 50.4312 169.146 50.2622 169.777 49.924C170.431 49.5859 170.95 49.09 171.333 48.4362C171.716 47.7825 171.908 46.9935 171.908 46.0693Z" fill="#FFFBFF"/>
<path d="M146.192 48.0113C146.192 48.4622 146.304 48.8566 146.53 49.1948C146.755 49.5104 147.059 49.7583 147.443 49.9387C147.848 50.0965 148.288 50.1754 148.761 50.1754C149.438 50.1754 150.046 50.0401 150.587 49.7696C151.128 49.4766 151.568 49.0708 151.906 48.5523C152.244 48.0113 152.413 47.3689 152.413 46.625L152.954 48.6538C152.954 49.6456 152.672 50.4797 152.109 51.156C151.568 51.8322 150.858 52.3394 149.979 52.6776C149.122 53.0157 148.22 53.1848 147.274 53.1848C146.304 53.1848 145.403 52.9932 144.568 52.6099C143.734 52.2267 143.058 51.6744 142.54 50.9531C142.044 50.2092 141.796 49.3075 141.796 48.248C141.796 46.7377 142.326 45.5429 143.385 44.6638C144.444 43.7846 145.944 43.3451 147.882 43.3451C148.874 43.3451 149.742 43.4465 150.486 43.6494C151.252 43.8523 151.895 44.1002 152.413 44.3933C152.932 44.6863 153.304 44.9681 153.529 45.2386V47.2674C152.92 46.8166 152.233 46.4784 151.466 46.253C150.723 46.0276 149.934 45.9149 149.099 45.9149C148.423 45.9149 147.871 46.0051 147.443 46.1854C147.014 46.3432 146.699 46.5799 146.496 46.8955C146.293 47.1885 146.192 47.5605 146.192 48.0113ZM144.501 41.6882L142.878 38.7126C143.689 38.2843 144.681 37.8786 145.853 37.4954C147.026 37.0896 148.333 36.8867 149.776 36.8867C151.106 36.8867 152.289 37.0783 153.326 37.4615C154.363 37.8448 155.175 38.4083 155.761 39.1522C156.347 39.8736 156.64 40.764 156.64 41.8235V52.8466H152.413V42.7364C152.413 42.3081 152.346 41.9474 152.21 41.6544C152.075 41.3388 151.861 41.0796 151.568 40.8767C151.297 40.6738 150.97 40.5273 150.587 40.4371C150.204 40.347 149.776 40.3019 149.302 40.3019C148.581 40.3019 147.893 40.3808 147.24 40.5386C146.586 40.6964 146.022 40.888 145.549 41.1134C145.076 41.3388 144.726 41.5304 144.501 41.6882Z" fill="#FFFBFF"/>
<path d="M130.761 27.4673H135.156V53.8417H130.761V27.4673ZM117.979 46.0646C117.979 44.3289 118.329 42.8636 119.027 41.6689C119.726 40.4516 120.65 39.5274 121.8 38.8962C122.95 38.265 124.167 37.9494 125.452 37.9494C126.759 37.9494 127.909 38.2763 128.901 38.93C129.915 39.5837 130.704 40.5192 131.268 41.7365C131.854 42.9313 132.147 44.374 132.147 46.0646C132.147 47.7328 131.854 49.1755 131.268 50.3927C130.704 51.61 129.915 52.5455 128.901 53.1993C127.909 53.853 126.759 54.1798 125.452 54.1798C124.167 54.1798 122.95 53.8643 121.8 53.2331C120.65 52.6019 119.726 51.6777 119.027 50.4604C118.329 49.2431 117.979 47.7778 117.979 46.0646ZM122.51 46.0646C122.51 46.9889 122.702 47.7891 123.085 48.4654C123.468 49.1417 123.987 49.6601 124.64 50.0208C125.294 50.3815 125.993 50.5618 126.737 50.5618C127.391 50.5618 128.022 50.3927 128.63 50.0546C129.262 49.6939 129.769 49.1755 130.152 48.4992C130.558 47.8229 130.761 47.0114 130.761 46.0646C130.761 45.1179 130.558 44.3063 130.152 43.6301C129.769 42.9538 129.262 42.4466 128.63 42.1085C128.022 41.7478 127.391 41.5675 126.737 41.5675C125.993 41.5675 125.294 41.7478 124.64 42.1085C123.987 42.4691 123.468 42.9876 123.085 43.6639C122.702 44.3402 122.51 45.1404 122.51 46.0646Z" fill="#FFFBFF"/>
<path d="M105.858 49.0113C105.858 49.4622 105.97 49.8566 106.196 50.1948C106.421 50.5104 106.726 50.7583 107.109 50.9387C107.515 51.0965 107.954 51.1754 108.428 51.1754C109.104 51.1754 109.712 51.0401 110.254 50.7696C110.795 50.4766 111.234 50.0708 111.572 49.5523C111.91 49.0113 112.079 48.3689 112.079 47.625L112.62 49.6538C112.62 50.6456 112.339 51.4797 111.775 52.156C111.234 52.8322 110.524 53.3394 109.645 53.6776C108.788 54.0157 107.887 54.1848 106.94 54.1848C105.97 54.1848 105.069 53.9932 104.235 53.6099C103.401 53.2267 102.724 52.6744 102.206 51.9531C101.71 51.2092 101.462 50.3075 101.462 49.248C101.462 47.7377 101.992 46.5429 103.051 45.6638C104.111 44.7846 105.61 44.3451 107.548 44.3451C108.54 44.3451 109.408 44.4465 110.152 44.6494C110.919 44.8523 111.561 45.1002 112.079 45.3933C112.598 45.6863 112.97 45.9681 113.195 46.2386V48.2674C112.587 47.8166 111.899 47.4784 111.133 47.253C110.389 47.0276 109.6 46.9149 108.766 46.9149C108.089 46.9149 107.537 47.0051 107.109 47.1854C106.681 47.3432 106.365 47.5799 106.162 47.8955C105.959 48.1885 105.858 48.5605 105.858 49.0113ZM104.167 42.6882L102.544 39.7126C103.356 39.2843 104.347 38.8786 105.52 38.4954C106.692 38.0896 107.999 37.8867 109.442 37.8867C110.772 37.8867 111.955 38.0783 112.992 38.4615C114.029 38.8448 114.841 39.4083 115.427 40.1522C116.013 40.8736 116.306 41.764 116.306 42.8235V53.8466H112.079V43.7364C112.079 43.3081 112.012 42.9474 111.877 42.6544C111.741 42.3388 111.527 42.0796 111.234 41.8767C110.964 41.6738 110.637 41.5273 110.254 41.4371C109.87 41.347 109.442 41.3019 108.969 41.3019C108.247 41.3019 107.56 41.3808 106.906 41.5386C106.252 41.6964 105.689 41.888 105.215 42.1134C104.742 42.3388 104.393 42.5304 104.167 42.6882Z" fill="#FFFBFF"/>
<path d="M95.2175 38.2919V53.846H90.9232V38.2919H95.2175ZM99.7823 42.8567C99.4893 42.5862 99.185 42.3833 98.8694 42.248C98.5763 42.0902 98.2044 42.0113 97.7535 42.0113C97.2125 42.0113 96.7504 42.1579 96.3672 42.4509C95.9839 42.744 95.6909 43.161 95.488 43.702C95.3077 44.2205 95.2175 44.8517 95.2175 45.5956L94.0002 44.3783C94.0002 43.1385 94.2369 42.0452 94.7103 41.0984C95.1837 40.1291 95.8036 39.3626 96.57 38.7991C97.3365 38.213 98.1255 37.9199 98.937 37.9199C99.5005 37.9199 100.03 38.0214 100.526 38.2242C101.045 38.4271 101.462 38.7314 101.777 39.1372L99.7823 42.8567Z" fill="#FFFBFF"/>
<defs>
<filter id="filter0_ddddi_384_397" x="-4.25965" y="-0.327665" width="115.662" height="125.123" filterUnits="userSpaceOnUse" color-interpolation-filters="sRGB">
<feFlood flood-opacity="0" result="BackgroundImageFix"/>
<feColorMatrix in="SourceAlpha" type="matrix" values="0 0 0 0 0 0 0 0 0 0 0 0 0 0 0 0 0 0 127 0" result="hardAlpha"/>
<feOffset dx="2.45749" dy="6.38947"/>
<feGaussianBlur stdDeviation="3.35857"/>
<feColorMatrix type="matrix" values="0 0 0 0 0 0 0 0 0 0 0 0 0 0 0 0 0 0 0.09 0"/>
<feBlend mode="normal" in2="BackgroundImageFix" result="effect1_dropShadow_384_397"/>
<feColorMatrix in="SourceAlpha" type="matrix" values="0 0 0 0 0 0 0 0 0 0 0 0 0 0 0 0 0 0 127 0" result="hardAlpha"/>
<feOffset dx="5.40648" dy="14.2534"/>
<feGaussianBlur stdDeviation="4.58731"/>
<feColorMatrix type="matrix" values="0 0 0 0 0 0 0 0 0 0 0 0 0 0 0 0 0 0 0.05 0"/>
<feBlend mode="normal" in2="effect1_dropShadow_384_397" result="effect2_dropShadow_384_397"/>
<feColorMatrix in="SourceAlpha" type="matrix" values="0 0 0 0 0 0 0 0 0 0 0 0 0 0 0 0 0 0 127 0" result="hardAlpha"/>
<feOffset dx="9.66613" dy="25.2302"/>
<feGaussianBlur stdDeviation="5.40648"/>
<feColorMatrix type="matrix" values="0 0 0 0 0 0 0 0 0 0 0 0 0 0 0 0 0 0 0.01 0"/>
<feBlend mode="normal" in2="effect2_dropShadow_384_397" result="effect3_dropShadow_384_397"/>
<feColorMatrix in="SourceAlpha" type="matrix" values="0 0 0 0 0 0 0 0 0 0 0 0 0 0 0 0 0 0 127 0" result="hardAlpha"/>
<feOffset dy="0.655331"/>
<feGaussianBlur stdDeviation="0.327665"/>
<feComposite in2="hardAlpha" operator="out"/>
<feColorMatrix type="matrix" values="0 0 0 0 0 0 0 0 0 0 0 0 0 0 0 0 0 0 0.25 0"/>
<feBlend mode="normal" in2="effect3_dropShadow_384_397" result="effect4_dropShadow_384_397"/>
<feBlend mode="normal" in="SourceGraphic" in2="effect4_dropShadow_384_397" result="shape"/>
<feColorMatrix in="SourceAlpha" type="matrix" values="0 0 0 0 0 0 0 0 0 0 0 0 0 0 0 0 0 0 127 0" result="hardAlpha"/>
<feOffset dx="-13.1066" dy="0.655331"/>
<feGaussianBlur stdDeviation="0.163833"/>
<feComposite in2="hardAlpha" operator="arithmetic" k2="-1" k3="1"/>
<feColorMatrix type="matrix" values="0 0 0 0 0 0 0 0 0 0 0 0 0 0 0 0 0 0 0.1 0"/>
<feBlend mode="normal" in2="shape" result="effect5_innerShadow_384_397"/>
</filter>
</defs>
</svg>
